<?xml version="1.0" encoding="UTF-8" standalone="no"?>
<!DOCTYPE svg PUBLIC "-//W3C//DTD SVG 1.1//EN" "http://www.w3.org/Graphics/SVG/1.1/DTD/svg11.dtd">
<svg width="100%" height="100%" viewBox="0 0 12736 3978" version="1.1" xmlns="http://www.w3.org/2000/svg" xmlns:xlink="http://www.w3.org/1999/xlink" xml:space="preserve" xmlns:serif="http://www.serif.com/" style="fill-rule:evenodd;clip-rule:evenodd;stroke-linecap:round;stroke-linejoin:round;stroke-miterlimit:2;">
    <g transform="matrix(1,0,0,1,-0.907806,-339.475)">
        <rect id="Artboard1" x="0.908" y="339.475" width="12735.2" height="3977.33" style="fill:none;"/>
        <clipPath id="_clip1">
            <rect id="Artboard11" serif:id="Artboard1" x="0.908" y="339.475" width="12735.2" height="3977.33"/>
        </clipPath>
        <g clip-path="url(#_clip1)">
            <g transform="matrix(4.16667,0,0,4.16667,0.907806,0.474783)">
                <path d="M140.908,93.75L187.771,187.496" style="fill:none;stroke:rgb(230,230,230);stroke-width:5px;"/>
                <path d="M890.75,93.75L937.613,187.496" style="fill:none;stroke:rgb(230,230,230);stroke-width:5px;"/>
                <path d="M1640.59,93.75L1687.46,187.496" style="fill:none;stroke:rgb(230,230,230);stroke-width:5px;"/>
                <path d="M2390.44,93.75L2437.3,187.496" style="fill:none;stroke:rgb(230,230,230);stroke-width:5px;"/>
                <path d="M2765.36,93.75L2812.22,187.496" style="fill:none;stroke:rgb(230,230,230);stroke-width:5px;"/>
                <path d="M2015.51,93.75L2062.38,187.496" style="fill:none;stroke:rgb(230,230,230);stroke-width:5px;"/>
                <path d="M1265.68,93.75L1312.54,187.496" style="fill:none;stroke:rgb(230,230,230);stroke-width:5px;"/>
                <path d="M515.834,93.75L562.697,187.496" style="fill:none;stroke:rgb(230,230,230);stroke-width:5px;"/>
                <path d="M422.099,93.746L515.834,93.746L562.697,0.001L515.834,-93.753L468.972,0.001L422.099,93.746Z" style="fill:none;stroke:rgb(230,230,230);stroke-width:5px;"/>
                <path d="M375.237,187.5L468.972,187.5L515.834,93.746L328.374,93.746L375.237,187.5Z" style="fill:none;stroke:rgb(230,230,230);stroke-width:5px;"/>
                <path d="M281.501,187.501L375.237,187.5L328.374,93.746L281.501,0.001L234.639,93.746L281.501,187.501Z" style="fill:none;stroke:rgb(230,230,230);stroke-width:5px;"/>
                <path d="M234.639,93.746L281.501,0.001L328.374,-93.753L234.638,-93.753L187.776,0.001L234.639,93.746Z" style="fill:none;stroke:rgb(230,230,230);stroke-width:5px;"/>
                <path d="M422.099,93.746L328.374,-93.753" style="fill:none;stroke:rgb(230,230,230);stroke-width:5px;"/>
                <path d="M797.021,93.746L890.756,93.746L937.618,0.001L890.755,-93.753L843.893,0.001L797.021,93.746Z" style="fill:none;stroke:rgb(230,230,230);stroke-width:5px;"/>
                <path d="M750.158,187.5L843.893,187.5L890.756,93.746L703.295,93.746L750.158,187.5Z" style="fill:none;stroke:rgb(230,230,230);stroke-width:5px;"/>
                <path d="M656.422,187.501L750.158,187.5L703.295,93.746L656.422,0.001L609.56,93.746L656.422,187.501Z" style="fill:none;stroke:rgb(230,230,230);stroke-width:5px;"/>
                <path d="M609.56,93.746L656.422,0.001L703.295,-93.753L609.56,-93.753L562.697,0.001L609.56,93.746Z" style="fill:none;stroke:rgb(230,230,230);stroke-width:5px;"/>
                <path d="M797.021,93.746L703.295,-93.753" style="fill:none;stroke:rgb(230,230,230);stroke-width:5px;"/>
                <path d="M1171.94,93.746L1265.68,93.746L1312.54,0.001L1265.68,-93.753L1218.81,0.001L1171.94,93.746Z" style="fill:none;stroke:rgb(230,230,230);stroke-width:5px;"/>
                <path d="M1125.08,187.5L1218.81,187.5L1265.68,93.746L1078.22,93.746L1125.08,187.5Z" style="fill:none;stroke:rgb(230,230,230);stroke-width:5px;"/>
                <path d="M1031.34,187.501L1125.08,187.5L1078.22,93.746L1031.34,0.001L984.481,93.746L1031.34,187.501Z" style="fill:none;stroke:rgb(230,230,230);stroke-width:5px;"/>
                <path d="M984.481,93.746L1031.34,0.001L1078.22,-93.753L984.481,-93.753L937.618,0.001L984.481,93.746Z" style="fill:none;stroke:rgb(230,230,230);stroke-width:5px;"/>
                <path d="M1171.94,93.746L1078.22,-93.753" style="fill:none;stroke:rgb(230,230,230);stroke-width:5px;"/>
                <path d="M1546.86,93.746L1640.6,93.746L1687.46,0.001L1640.6,-93.753L1593.74,0.001L1546.86,93.746Z" style="fill:none;stroke:rgb(230,230,230);stroke-width:5px;"/>
                <path d="M1500,187.5L1593.74,187.5L1640.6,93.746L1453.14,93.746L1500,187.5Z" style="fill:none;stroke:rgb(230,230,230);stroke-width:5px;"/>
                <path d="M1406.26,187.501L1500,187.5L1453.14,93.746L1406.26,0.001L1359.4,93.746L1406.26,187.501Z" style="fill:none;stroke:rgb(230,230,230);stroke-width:5px;"/>
                <path d="M1359.4,93.746L1406.26,0.001L1453.14,-93.753L1359.4,-93.753L1312.54,0.001L1359.4,93.746Z" style="fill:none;stroke:rgb(230,230,230);stroke-width:5px;"/>
                <path d="M1546.86,93.746L1453.14,-93.753" style="fill:none;stroke:rgb(230,230,230);stroke-width:5px;"/>
                <path d="M1921.78,93.746L2015.52,93.746L2062.38,0.001L2015.52,-93.753L1968.66,0.001L1921.78,93.746Z" style="fill:none;stroke:rgb(230,230,230);stroke-width:5px;"/>
                <path d="M1874.92,187.5L1968.66,187.5L2015.52,93.746L1828.06,93.746L1874.92,187.5Z" style="fill:none;stroke:rgb(230,230,230);stroke-width:5px;"/>
                <path d="M1781.19,187.501L1874.92,187.5L1828.06,93.746L1781.19,0.001L1734.32,93.746L1781.19,187.501Z" style="fill:none;stroke:rgb(230,230,230);stroke-width:5px;"/>
                <path d="M1734.32,93.746L1781.19,0.001L1828.06,-93.753L1734.32,-93.753L1687.46,0.001L1734.32,93.746Z" style="fill:none;stroke:rgb(230,230,230);stroke-width:5px;"/>
                <path d="M1921.78,93.746L1828.06,-93.753" style="fill:none;stroke:rgb(230,230,230);stroke-width:5px;"/>
                <path d="M2296.71,93.746L2390.44,93.746L2437.3,0.001L2390.44,-93.753L2343.58,0.001L2296.71,93.746Z" style="fill:none;stroke:rgb(230,230,230);stroke-width:5px;"/>
                <path d="M2249.84,187.5L2343.58,187.5L2390.44,93.746L2202.98,93.746L2249.84,187.5Z" style="fill:none;stroke:rgb(230,230,230);stroke-width:5px;"/>
                <path d="M2156.11,187.501L2249.84,187.5L2202.98,93.746L2156.11,0.001L2109.24,93.746L2156.11,187.501Z" style="fill:none;stroke:rgb(230,230,230);stroke-width:5px;"/>
                <path d="M2109.24,93.746L2156.11,0.001L2202.98,-93.753L2109.24,-93.753L2062.38,0.001L2109.24,93.746Z" style="fill:none;stroke:rgb(230,230,230);stroke-width:5px;"/>
                <path d="M2296.71,93.746L2202.98,-93.753" style="fill:none;stroke:rgb(230,230,230);stroke-width:5px;"/>
                <path d="M2671.63,93.746L2765.36,93.746L2812.22,0.001L2765.36,-93.753L2718.5,0.001L2671.63,93.746Z" style="fill:none;stroke:rgb(230,230,230);stroke-width:5px;"/>
                <path d="M2624.76,187.5L2718.5,187.5L2765.36,93.746L2577.9,93.746L2624.76,187.5Z" style="fill:none;stroke:rgb(230,230,230);stroke-width:5px;"/>
                <path d="M2531.03,187.501L2624.76,187.5L2577.9,93.746L2531.03,0.001L2484.17,93.746L2531.03,187.501Z" style="fill:none;stroke:rgb(230,230,230);stroke-width:5px;"/>
                <path d="M2484.17,93.746L2531.03,0.001L2577.9,-93.753L2484.17,-93.753L2437.3,0.001L2484.17,93.746Z" style="fill:none;stroke:rgb(230,230,230);stroke-width:5px;"/>
                <path d="M2671.63,93.746L2577.9,-93.753" style="fill:none;stroke:rgb(230,230,230);stroke-width:5px;"/>
                <path d="M2999.68,187.5L3093.42,187.5L3140.28,93.746L2952.82,93.746L2999.68,187.5Z" style="fill:none;stroke:rgb(230,230,230);stroke-width:5px;"/>
                <path d="M2905.95,187.501L2999.68,187.5L2952.82,93.746L2905.95,0.001L2859.09,93.746L2905.95,187.501Z" style="fill:none;stroke:rgb(230,230,230);stroke-width:5px;"/>
                <path d="M2859.09,93.746L2905.95,0.001L2952.82,-93.753L2859.09,-93.753L2812.22,0.001L2859.09,93.746Z" style="fill:none;stroke:rgb(230,230,230);stroke-width:5px;"/>
                <path d="M3046.55,93.746L2952.82,-93.753" style="fill:none;stroke:rgb(230,230,230);stroke-width:5px;"/>
                <path d="M47.178,93.746L140.913,93.746L187.776,0.001L140.913,-93.753L94.05,0.001L47.178,93.746Z" style="fill:none;stroke:rgb(230,230,230);stroke-width:5px;"/>
                <path d="M0.315,187.5L94.05,187.5L140.913,93.746L-46.547,93.746L0.315,187.5Z" style="fill:none;stroke:rgb(230,230,230);stroke-width:5px;"/>
                <path d="M-93.419,187.501L0.315,187.5L-46.547,93.746L-93.419,0.001L-140.282,93.746L-93.419,187.501Z" style="fill:none;stroke:rgb(230,230,230);stroke-width:5px;"/>
                <path d="M47.178,93.746L-46.547,-93.753" style="fill:none;stroke:rgb(230,230,230);stroke-width:5px;"/>
                <path d="M2952.82,281.246L2999.68,187.501" style="fill:none;stroke:rgb(230,230,230);stroke-width:5px;"/>
                <path d="M703.29,281.246L750.153,187.501" style="fill:none;stroke:rgb(230,230,230);stroke-width:5px;"/>
                <path d="M1453.13,281.246L1500,187.501" style="fill:none;stroke:rgb(230,230,230);stroke-width:5px;"/>
                <path d="M2202.98,281.246L2249.84,187.501" style="fill:none;stroke:rgb(230,230,230);stroke-width:5px;"/>
                <path d="M2577.9,281.246L2624.76,187.501" style="fill:none;stroke:rgb(230,230,230);stroke-width:5px;"/>
                <path d="M1828.05,281.246L1874.92,187.501" style="fill:none;stroke:rgb(230,230,230);stroke-width:5px;"/>
                <path d="M1078.22,281.246L1125.08,187.501" style="fill:none;stroke:rgb(230,230,230);stroke-width:5px;"/>
                <path d="M328.374,281.246L375.237,187.501" style="fill:none;stroke:rgb(230,230,230);stroke-width:5px;"/>
                <path d="M2671.62,468.75L2624.76,562.496" style="fill:none;stroke:rgb(230,230,230);stroke-width:5px;"/>
                <path d="M1921.78,468.75L1874.92,562.496" style="fill:none;stroke:rgb(230,230,230);stroke-width:5px;"/>
                <path d="M1171.94,468.75L1125.07,562.496" style="fill:none;stroke:rgb(230,230,230);stroke-width:5px;"/>
                <path d="M422.094,468.75L375.231,562.496" style="fill:none;stroke:rgb(230,230,230);stroke-width:5px;"/>
                <path d="M47.172,468.75L0.31,562.496" style="fill:none;stroke:rgb(230,230,230);stroke-width:5px;"/>
                <path d="M797.015,468.75L750.152,562.496" style="fill:none;stroke:rgb(230,230,230);stroke-width:5px;"/>
                <path d="M1546.85,468.75L1499.99,562.496" style="fill:none;stroke:rgb(230,230,230);stroke-width:5px;"/>
                <path d="M2296.69,468.75L2249.83,562.496" style="fill:none;stroke:rgb(230,230,230);stroke-width:5px;"/>
                <path d="M234.639,281.251L328.374,281.251L375.237,374.995L328.374,468.75L281.511,374.995L234.639,281.251Z" style="fill:none;stroke:rgb(230,230,230);stroke-width:5px;"/>
                <path d="M281.511,374.995L328.374,468.75L281.511,562.496L187.776,562.496L234.639,468.75L281.511,374.995Z" style="fill:none;stroke:rgb(230,230,230);stroke-width:5px;"/>
                <path d="M187.776,187.496L281.511,187.496L328.374,281.251L140.913,281.251L187.776,187.496Z" style="fill:none;stroke:rgb(230,230,230);stroke-width:5px;"/>
                <path d="M47.178,468.75L234.639,468.75L187.776,562.496L94.04,562.496L47.178,468.75Z" style="fill:none;stroke:rgb(230,230,230);stroke-width:5px;"/>
                <path d="M94.04,187.496L187.776,187.496L140.913,281.251L94.04,374.995L47.178,281.251L94.04,187.496Z" style="fill:none;stroke:rgb(230,230,230);stroke-width:5px;"/>
                <path d="M47.178,281.251L94.04,374.995L140.913,468.75L47.178,468.75L0.315,374.995L47.178,281.251Z" style="fill:none;stroke:rgb(230,230,230);stroke-width:5px;"/>
                <path d="M234.639,281.251L140.913,468.75" style="fill:none;stroke:rgb(230,230,230);stroke-width:5px;"/>
                <path d="M609.56,281.251L703.295,281.251L750.158,374.995L703.295,468.75L656.433,374.995L609.56,281.251Z" style="fill:none;stroke:rgb(230,230,230);stroke-width:5px;"/>
                <path d="M656.433,374.995L703.295,468.75L656.433,562.496L562.697,562.496L609.56,468.75L656.433,374.995Z" style="fill:none;stroke:rgb(230,230,230);stroke-width:5px;"/>
                <path d="M562.697,187.496L656.433,187.496L703.295,281.251L515.834,281.251L562.697,187.496Z" style="fill:none;stroke:rgb(230,230,230);stroke-width:5px;"/>
                <path d="M422.099,468.75L609.56,468.75L562.697,562.496L468.962,562.496L422.099,468.75Z" style="fill:none;stroke:rgb(230,230,230);stroke-width:5px;"/>
                <path d="M468.962,187.496L562.697,187.496L515.834,281.251L468.962,374.995L422.099,281.251L468.962,187.496Z" style="fill:none;stroke:rgb(230,230,230);stroke-width:5px;"/>
                <path d="M422.099,281.251L468.962,374.995L515.834,468.75L422.099,468.75L375.237,374.995L422.099,281.251Z" style="fill:none;stroke:rgb(230,230,230);stroke-width:5px;"/>
                <path d="M609.56,281.251L515.834,468.75" style="fill:none;stroke:rgb(230,230,230);stroke-width:5px;"/>
                <path d="M984.481,281.251L1078.22,281.251L1125.08,374.995L1078.22,468.75L1031.35,374.995L984.481,281.251Z" style="fill:none;stroke:rgb(230,230,230);stroke-width:5px;"/>
                <path d="M1031.35,374.995L1078.22,468.75L1031.35,562.496L937.618,562.496L984.481,468.75L1031.35,374.995Z" style="fill:none;stroke:rgb(230,230,230);stroke-width:5px;"/>
                <path d="M937.619,187.496L1031.35,187.496L1078.22,281.251L890.756,281.251L937.619,187.496Z" style="fill:none;stroke:rgb(230,230,230);stroke-width:5px;"/>
                <path d="M797.021,468.75L984.481,468.75L937.618,562.496L843.883,562.496L797.021,468.75Z" style="fill:none;stroke:rgb(230,230,230);stroke-width:5px;"/>
                <path d="M843.883,187.496L937.619,187.496L890.756,281.251L843.883,374.995L797.021,281.251L843.883,187.496Z" style="fill:none;stroke:rgb(230,230,230);stroke-width:5px;"/>
                <path d="M797.021,281.251L843.883,374.995L890.756,468.75L797.021,468.75L750.158,374.995L797.021,281.251Z" style="fill:none;stroke:rgb(230,230,230);stroke-width:5px;"/>
                <path d="M984.481,281.251L890.756,468.75" style="fill:none;stroke:rgb(230,230,230);stroke-width:5px;"/>
                <path d="M1359.4,281.251L1453.14,281.251L1500,374.995L1453.14,468.75L1406.27,374.995L1359.4,281.251Z" style="fill:none;stroke:rgb(230,230,230);stroke-width:5px;"/>
                <path d="M1406.27,374.995L1453.14,468.75L1406.27,562.496L1312.54,562.496L1359.4,468.75L1406.27,374.995Z" style="fill:none;stroke:rgb(230,230,230);stroke-width:5px;"/>
                <path d="M1312.54,187.496L1406.27,187.496L1453.14,281.251L1265.68,281.251L1312.54,187.496Z" style="fill:none;stroke:rgb(230,230,230);stroke-width:5px;"/>
                <path d="M1171.94,468.75L1359.4,468.75L1312.54,562.496L1218.8,562.496L1171.94,468.75Z" style="fill:none;stroke:rgb(230,230,230);stroke-width:5px;"/>
                <path d="M1218.8,187.496L1312.54,187.496L1265.68,281.251L1218.8,374.995L1171.94,281.251L1218.8,187.496Z" style="fill:none;stroke:rgb(230,230,230);stroke-width:5px;"/>
                <path d="M1171.94,281.251L1218.8,374.995L1265.68,468.75L1171.94,468.75L1125.08,374.995L1171.94,281.251Z" style="fill:none;stroke:rgb(230,230,230);stroke-width:5px;"/>
                <path d="M1359.4,281.251L1265.68,468.75" style="fill:none;stroke:rgb(230,230,230);stroke-width:5px;"/>
                <path d="M1734.32,281.251L1828.06,281.251L1874.92,374.995L1828.06,468.75L1781.2,374.995L1734.32,281.251Z" style="fill:none;stroke:rgb(230,230,230);stroke-width:5px;"/>
                <path d="M1781.2,374.995L1828.06,468.75L1781.2,562.496L1687.46,562.496L1734.32,468.75L1781.2,374.995Z" style="fill:none;stroke:rgb(230,230,230);stroke-width:5px;"/>
                <path d="M1687.46,187.496L1781.2,187.496L1828.06,281.251L1640.6,281.251L1687.46,187.496Z" style="fill:none;stroke:rgb(230,230,230);stroke-width:5px;"/>
                <path d="M1546.86,468.75L1734.32,468.75L1687.46,562.496L1593.73,562.496L1546.86,468.75Z" style="fill:none;stroke:rgb(230,230,230);stroke-width:5px;"/>
                <path d="M1593.73,187.496L1687.46,187.496L1640.6,281.251L1593.73,374.995L1546.86,281.251L1593.73,187.496Z" style="fill:none;stroke:rgb(230,230,230);stroke-width:5px;"/>
                <path d="M1546.86,281.251L1593.73,374.995L1640.6,468.75L1546.86,468.75L1500,374.995L1546.86,281.251Z" style="fill:none;stroke:rgb(230,230,230);stroke-width:5px;"/>
                <path d="M1734.32,281.251L1640.6,468.75" style="fill:none;stroke:rgb(230,230,230);stroke-width:5px;"/>
                <path d="M2109.24,281.251L2202.98,281.251L2249.84,374.995L2202.98,468.75L2156.12,374.995L2109.24,281.251Z" style="fill:none;stroke:rgb(230,230,230);stroke-width:5px;"/>
                <path d="M2156.12,374.995L2202.98,468.75L2156.12,562.496L2062.38,562.496L2109.24,468.75L2156.12,374.995Z" style="fill:none;stroke:rgb(230,230,230);stroke-width:5px;"/>
                <path d="M2062.38,187.496L2156.12,187.496L2202.98,281.251L2015.52,281.251L2062.38,187.496Z" style="fill:none;stroke:rgb(230,230,230);stroke-width:5px;"/>
                <path d="M1921.78,468.75L2109.24,468.75L2062.38,562.496L1968.65,562.496L1921.78,468.75Z" style="fill:none;stroke:rgb(230,230,230);stroke-width:5px;"/>
                <path d="M1968.65,187.496L2062.38,187.496L2015.52,281.251L1968.65,374.995L1921.78,281.251L1968.65,187.496Z" style="fill:none;stroke:rgb(230,230,230);stroke-width:5px;"/>
                <path d="M1921.78,281.251L1968.65,374.995L2015.52,468.75L1921.78,468.75L1874.92,374.995L1921.78,281.251Z" style="fill:none;stroke:rgb(230,230,230);stroke-width:5px;"/>
                <path d="M2109.24,281.251L2015.52,468.75" style="fill:none;stroke:rgb(230,230,230);stroke-width:5px;"/>
                <path d="M2484.17,281.251L2577.9,281.251L2624.76,374.995L2577.9,468.75L2531.04,374.995L2484.17,281.251Z" style="fill:none;stroke:rgb(230,230,230);stroke-width:5px;"/>
                <path d="M2531.04,374.995L2577.9,468.75L2531.04,562.496L2437.3,562.496L2484.17,468.75L2531.04,374.995Z" style="fill:none;stroke:rgb(230,230,230);stroke-width:5px;"/>
                <path d="M2437.3,187.496L2531.04,187.496L2577.9,281.251L2390.44,281.251L2437.3,187.496Z" style="fill:none;stroke:rgb(230,230,230);stroke-width:5px;"/>
                <path d="M2296.71,468.75L2484.17,468.75L2437.3,562.496L2343.57,562.496L2296.71,468.75Z" style="fill:none;stroke:rgb(230,230,230);stroke-width:5px;"/>
                <path d="M2343.57,187.496L2437.3,187.496L2390.44,281.251L2343.57,374.995L2296.71,281.251L2343.57,187.496Z" style="fill:none;stroke:rgb(230,230,230);stroke-width:5px;"/>
                <path d="M2296.71,281.251L2343.57,374.995L2390.44,468.75L2296.71,468.75L2249.84,374.995L2296.71,281.251Z" style="fill:none;stroke:rgb(230,230,230);stroke-width:5px;"/>
                <path d="M2484.17,281.251L2390.44,468.75" style="fill:none;stroke:rgb(230,230,230);stroke-width:5px;"/>
                <path d="M2859.09,281.251L2952.82,281.251L2999.68,374.995L2952.82,468.75L2905.96,374.995L2859.09,281.251Z" style="fill:none;stroke:rgb(230,230,230);stroke-width:5px;"/>
                <path d="M2905.96,374.995L2952.82,468.75L2905.96,562.496L2812.22,562.496L2859.09,468.75L2905.96,374.995Z" style="fill:none;stroke:rgb(230,230,230);stroke-width:5px;"/>
                <path d="M2812.22,187.496L2905.96,187.496L2952.82,281.251L2765.36,281.251L2812.22,187.496Z" style="fill:none;stroke:rgb(230,230,230);stroke-width:5px;"/>
                <path d="M2671.63,468.75L2859.09,468.75L2812.22,562.496L2718.49,562.496L2671.63,468.75Z" style="fill:none;stroke:rgb(230,230,230);stroke-width:5px;"/>
                <path d="M2718.49,187.496L2812.22,187.496L2765.36,281.251L2718.49,374.995L2671.63,281.251L2718.49,187.496Z" style="fill:none;stroke:rgb(230,230,230);stroke-width:5px;"/>
                <path d="M2671.63,281.251L2718.49,374.995L2765.36,468.75L2671.63,468.75L2624.76,374.995L2671.63,281.251Z" style="fill:none;stroke:rgb(230,230,230);stroke-width:5px;"/>
                <path d="M2859.09,281.251L2765.36,468.75" style="fill:none;stroke:rgb(230,230,230);stroke-width:5px;"/>
                <path d="M140.908,843.745L187.771,937.491" style="fill:none;stroke:rgb(230,230,230);stroke-width:5px;"/>
                <path d="M890.75,843.745L937.613,937.491" style="fill:none;stroke:rgb(230,230,230);stroke-width:5px;"/>
                <path d="M1640.59,843.745L1687.46,937.491" style="fill:none;stroke:rgb(230,230,230);stroke-width:5px;"/>
                <path d="M2390.44,843.745L2437.3,937.491" style="fill:none;stroke:rgb(230,230,230);stroke-width:5px;"/>
                <path d="M2765.36,843.745L2812.22,937.491" style="fill:none;stroke:rgb(230,230,230);stroke-width:5px;"/>
                <path d="M2015.51,843.745L2062.38,937.491" style="fill:none;stroke:rgb(230,230,230);stroke-width:5px;"/>
                <path d="M1265.68,843.745L1312.54,937.491" style="fill:none;stroke:rgb(230,230,230);stroke-width:5px;"/>
                <path d="M515.834,843.745L562.697,937.491" style="fill:none;stroke:rgb(230,230,230);stroke-width:5px;"/>
                <path d="M2859.08,656.241L2812.22,562.496" style="fill:none;stroke:rgb(230,230,230);stroke-width:5px;"/>
                <path d="M2109.24,656.241L2062.38,562.496" style="fill:none;stroke:rgb(230,230,230);stroke-width:5px;"/>
                <path d="M1359.4,656.241L1312.53,562.496" style="fill:none;stroke:rgb(230,230,230);stroke-width:5px;"/>
                <path d="M609.554,656.241L562.692,562.496" style="fill:none;stroke:rgb(230,230,230);stroke-width:5px;"/>
                <path d="M234.633,656.241L187.771,562.496" style="fill:none;stroke:rgb(230,230,230);stroke-width:5px;"/>
                <path d="M984.476,656.241L937.613,562.496" style="fill:none;stroke:rgb(230,230,230);stroke-width:5px;"/>
                <path d="M1734.31,656.241L1687.45,562.496" style="fill:none;stroke:rgb(230,230,230);stroke-width:5px;"/>
                <path d="M2484.16,656.241L2437.29,562.496" style="fill:none;stroke:rgb(230,230,230);stroke-width:5px;"/>
                <path d="M422.099,843.74L515.834,843.74L562.697,749.996L515.834,656.241L468.972,749.996L422.099,843.74Z" style="fill:none;stroke:rgb(230,230,230);stroke-width:5px;"/>
                <path d="M468.972,749.996L515.834,656.241L468.972,562.496L375.236,562.496L422.099,656.241L468.972,749.996Z" style="fill:none;stroke:rgb(230,230,230);stroke-width:5px;"/>
                <path d="M375.237,937.496L468.972,937.496L515.834,843.74L328.374,843.74L375.237,937.496Z" style="fill:none;stroke:rgb(230,230,230);stroke-width:5px;"/>
                <path d="M234.638,656.241L422.099,656.241L375.236,562.496L281.501,562.496L234.638,656.241Z" style="fill:none;stroke:rgb(230,230,230);stroke-width:5px;"/>
                <path d="M281.501,937.496L375.237,937.496L328.374,843.74L281.501,749.996L234.639,843.741L281.501,937.496Z" style="fill:none;stroke:rgb(230,230,230);stroke-width:5px;"/>
                <path d="M234.639,843.741L281.501,749.996L328.374,656.241L234.638,656.241L187.776,749.996L234.639,843.741Z" style="fill:none;stroke:rgb(230,230,230);stroke-width:5px;"/>
                <path d="M422.099,843.74L328.374,656.241" style="fill:none;stroke:rgb(230,230,230);stroke-width:5px;"/>
                <path d="M797.021,843.74L890.756,843.74L937.618,749.996L890.755,656.241L843.893,749.996L797.021,843.74Z" style="fill:none;stroke:rgb(230,230,230);stroke-width:5px;"/>
                <path d="M843.893,749.996L890.755,656.241L843.893,562.496L750.158,562.496L797.02,656.241L843.893,749.996Z" style="fill:none;stroke:rgb(230,230,230);stroke-width:5px;"/>
                <path d="M750.158,937.496L843.893,937.496L890.756,843.74L703.295,843.74L750.158,937.496Z" style="fill:none;stroke:rgb(230,230,230);stroke-width:5px;"/>
                <path d="M609.56,656.241L797.02,656.241L750.158,562.496L656.422,562.496L609.56,656.241Z" style="fill:none;stroke:rgb(230,230,230);stroke-width:5px;"/>
                <path d="M656.422,937.496L750.158,937.496L703.295,843.74L656.422,749.996L609.56,843.741L656.422,937.496Z" style="fill:none;stroke:rgb(230,230,230);stroke-width:5px;"/>
                <path d="M609.56,843.741L656.422,749.996L703.295,656.241L609.56,656.241L562.697,749.996L609.56,843.741Z" style="fill:none;stroke:rgb(230,230,230);stroke-width:5px;"/>
                <path d="M797.021,843.74L703.295,656.241" style="fill:none;stroke:rgb(230,230,230);stroke-width:5px;"/>
                <path d="M1171.94,843.74L1265.68,843.74L1312.54,749.996L1265.68,656.241L1218.81,749.996L1171.94,843.74Z" style="fill:none;stroke:rgb(230,230,230);stroke-width:5px;"/>
                <path d="M1218.81,749.996L1265.68,656.241L1218.81,562.496L1125.08,562.496L1171.94,656.241L1218.81,749.996Z" style="fill:none;stroke:rgb(230,230,230);stroke-width:5px;"/>
                <path d="M1125.08,937.496L1218.81,937.496L1265.68,843.74L1078.22,843.74L1125.08,937.496Z" style="fill:none;stroke:rgb(230,230,230);stroke-width:5px;"/>
                <path d="M984.481,656.241L1171.94,656.241L1125.08,562.496L1031.34,562.496L984.481,656.241Z" style="fill:none;stroke:rgb(230,230,230);stroke-width:5px;"/>
                <path d="M1031.34,937.496L1125.08,937.496L1078.22,843.74L1031.34,749.996L984.481,843.741L1031.34,937.496Z" style="fill:none;stroke:rgb(230,230,230);stroke-width:5px;"/>
                <path d="M984.481,843.741L1031.34,749.996L1078.22,656.241L984.481,656.241L937.618,749.996L984.481,843.741Z" style="fill:none;stroke:rgb(230,230,230);stroke-width:5px;"/>
                <path d="M1171.94,843.74L1078.22,656.241" style="fill:none;stroke:rgb(230,230,230);stroke-width:5px;"/>
                <path d="M1546.86,843.74L1640.6,843.74L1687.46,749.996L1640.6,656.241L1593.74,749.996L1546.86,843.74Z" style="fill:none;stroke:rgb(230,230,230);stroke-width:5px;"/>
                <path d="M1593.74,749.996L1640.6,656.241L1593.74,562.496L1500,562.496L1546.86,656.241L1593.74,749.996Z" style="fill:none;stroke:rgb(230,230,230);stroke-width:5px;"/>
                <path d="M1500,937.496L1593.74,937.496L1640.6,843.74L1453.14,843.74L1500,937.496Z" style="fill:none;stroke:rgb(230,230,230);stroke-width:5px;"/>
                <path d="M1359.4,656.241L1546.86,656.241L1500,562.496L1406.26,562.496L1359.4,656.241Z" style="fill:none;stroke:rgb(230,230,230);stroke-width:5px;"/>
                <path d="M1406.26,937.496L1500,937.496L1453.14,843.74L1406.26,749.996L1359.4,843.741L1406.26,937.496Z" style="fill:none;stroke:rgb(230,230,230);stroke-width:5px;"/>
                <path d="M1359.4,843.741L1406.26,749.996L1453.14,656.241L1359.4,656.241L1312.54,749.996L1359.4,843.741Z" style="fill:none;stroke:rgb(230,230,230);stroke-width:5px;"/>
                <path d="M1546.86,843.74L1453.14,656.241" style="fill:none;stroke:rgb(230,230,230);stroke-width:5px;"/>
                <path d="M1921.78,843.74L2015.52,843.74L2062.38,749.996L2015.52,656.241L1968.66,749.996L1921.78,843.74Z" style="fill:none;stroke:rgb(230,230,230);stroke-width:5px;"/>
                <path d="M1968.66,749.996L2015.52,656.241L1968.66,562.496L1874.92,562.496L1921.78,656.241L1968.66,749.996Z" style="fill:none;stroke:rgb(230,230,230);stroke-width:5px;"/>
                <path d="M1874.92,937.496L1968.66,937.496L2015.52,843.74L1828.06,843.74L1874.92,937.496Z" style="fill:none;stroke:rgb(230,230,230);stroke-width:5px;"/>
                <path d="M1734.32,656.241L1921.78,656.241L1874.92,562.496L1781.19,562.496L1734.32,656.241Z" style="fill:none;stroke:rgb(230,230,230);stroke-width:5px;"/>
                <path d="M1781.19,937.496L1874.92,937.496L1828.06,843.74L1781.19,749.996L1734.32,843.741L1781.19,937.496Z" style="fill:none;stroke:rgb(230,230,230);stroke-width:5px;"/>
                <path d="M1734.32,843.741L1781.19,749.996L1828.06,656.241L1734.32,656.241L1687.46,749.996L1734.32,843.741Z" style="fill:none;stroke:rgb(230,230,230);stroke-width:5px;"/>
                <path d="M1921.78,843.74L1828.06,656.241" style="fill:none;stroke:rgb(230,230,230);stroke-width:5px;"/>
                <path d="M2296.71,843.74L2390.44,843.74L2437.3,749.996L2390.44,656.241L2343.58,749.996L2296.71,843.74Z" style="fill:none;stroke:rgb(230,230,230);stroke-width:5px;"/>
                <path d="M2343.58,749.996L2390.44,656.241L2343.58,562.496L2249.84,562.496L2296.71,656.241L2343.58,749.996Z" style="fill:none;stroke:rgb(230,230,230);stroke-width:5px;"/>
                <path d="M2249.84,937.496L2343.58,937.496L2390.44,843.74L2202.98,843.74L2249.84,937.496Z" style="fill:none;stroke:rgb(230,230,230);stroke-width:5px;"/>
                <path d="M2109.24,656.241L2296.71,656.241L2249.84,562.496L2156.11,562.496L2109.24,656.241Z" style="fill:none;stroke:rgb(230,230,230);stroke-width:5px;"/>
                <path d="M2156.11,937.496L2249.84,937.496L2202.98,843.74L2156.11,749.996L2109.24,843.741L2156.11,937.496Z" style="fill:none;stroke:rgb(230,230,230);stroke-width:5px;"/>
                <path d="M2109.24,843.741L2156.11,749.996L2202.98,656.241L2109.24,656.241L2062.38,749.996L2109.24,843.741Z" style="fill:none;stroke:rgb(230,230,230);stroke-width:5px;"/>
                <path d="M2296.71,843.74L2202.98,656.241" style="fill:none;stroke:rgb(230,230,230);stroke-width:5px;"/>
                <path d="M2671.63,843.74L2765.36,843.74L2812.22,749.996L2765.36,656.241L2718.5,749.996L2671.63,843.74Z" style="fill:none;stroke:rgb(230,230,230);stroke-width:5px;"/>
                <path d="M2718.5,749.996L2765.36,656.241L2718.5,562.496L2624.76,562.496L2671.63,656.241L2718.5,749.996Z" style="fill:none;stroke:rgb(230,230,230);stroke-width:5px;"/>
                <path d="M2624.76,937.496L2718.5,937.496L2765.36,843.74L2577.9,843.74L2624.76,937.496Z" style="fill:none;stroke:rgb(230,230,230);stroke-width:5px;"/>
                <path d="M2484.17,656.241L2671.63,656.241L2624.76,562.496L2531.03,562.496L2484.17,656.241Z" style="fill:none;stroke:rgb(230,230,230);stroke-width:5px;"/>
                <path d="M2531.03,937.496L2624.76,937.496L2577.9,843.74L2531.03,749.996L2484.17,843.741L2531.03,937.496Z" style="fill:none;stroke:rgb(230,230,230);stroke-width:5px;"/>
                <path d="M2484.17,843.741L2531.03,749.996L2577.9,656.241L2484.17,656.241L2437.3,749.996L2484.17,843.741Z" style="fill:none;stroke:rgb(230,230,230);stroke-width:5px;"/>
                <path d="M2671.63,843.74L2577.9,656.241" style="fill:none;stroke:rgb(230,230,230);stroke-width:5px;"/>
                <path d="M3093.42,749.996L3140.28,656.241L3093.42,562.496L2999.68,562.496L3046.55,656.241L3093.42,749.996Z" style="fill:none;stroke:rgb(230,230,230);stroke-width:5px;"/>
                <path d="M2999.68,937.496L3093.42,937.496L3140.28,843.74L2952.82,843.74L2999.68,937.496Z" style="fill:none;stroke:rgb(230,230,230);stroke-width:5px;"/>
                <path d="M2859.09,656.241L3046.55,656.241L2999.68,562.496L2905.95,562.496L2859.09,656.241Z" style="fill:none;stroke:rgb(230,230,230);stroke-width:5px;"/>
                <path d="M2905.95,937.496L2999.68,937.496L2952.82,843.74L2905.95,749.996L2859.09,843.741L2905.95,937.496Z" style="fill:none;stroke:rgb(230,230,230);stroke-width:5px;"/>
                <path d="M2859.09,843.741L2905.95,749.996L2952.82,656.241L2859.09,656.241L2812.22,749.996L2859.09,843.741Z" style="fill:none;stroke:rgb(230,230,230);stroke-width:5px;"/>
                <path d="M3046.55,843.74L2952.82,656.241" style="fill:none;stroke:rgb(230,230,230);stroke-width:5px;"/>
                <path d="M47.178,843.74L140.913,843.74L187.776,749.996L140.913,656.241L94.05,749.996L47.178,843.74Z" style="fill:none;stroke:rgb(230,230,230);stroke-width:5px;"/>
                <path d="M94.05,749.996L140.913,656.241L94.05,562.496L0.315,562.496L47.178,656.241L94.05,749.996Z" style="fill:none;stroke:rgb(230,230,230);stroke-width:5px;"/>
                <path d="M0.315,937.496L94.05,937.496L140.913,843.74L-46.547,843.74L0.315,937.496Z" style="fill:none;stroke:rgb(230,230,230);stroke-width:5px;"/>
                <path d="M-140.283,656.241L47.178,656.241L0.315,562.496L-93.419,562.496L-140.283,656.241Z" style="fill:none;stroke:rgb(230,230,230);stroke-width:5px;"/>
                <path d="M-93.419,937.496L0.315,937.496L-46.547,843.74L-93.419,749.996L-140.282,843.741L-93.419,937.496Z" style="fill:none;stroke:rgb(230,230,230);stroke-width:5px;"/>
                <path d="M47.178,843.74L-46.547,656.241" style="fill:none;stroke:rgb(230,230,230);stroke-width:5px;"/>
                <path d="M2952.82,1031.24L2999.68,937.496" style="fill:none;stroke:rgb(230,230,230);stroke-width:5px;"/>
                <path d="M703.29,1031.24L750.153,937.496" style="fill:none;stroke:rgb(230,230,230);stroke-width:5px;"/>
                <path d="M1453.13,1031.24L1500,937.496" style="fill:none;stroke:rgb(230,230,230);stroke-width:5px;"/>
                <path d="M2202.98,1031.24L2249.84,937.496" style="fill:none;stroke:rgb(230,230,230);stroke-width:5px;"/>
                <path d="M2577.9,1031.24L2624.76,937.496" style="fill:none;stroke:rgb(230,230,230);stroke-width:5px;"/>
                <path d="M1828.05,1031.24L1874.92,937.496" style="fill:none;stroke:rgb(230,230,230);stroke-width:5px;"/>
                <path d="M1078.22,1031.24L1125.08,937.496" style="fill:none;stroke:rgb(230,230,230);stroke-width:5px;"/>
                <path d="M328.374,1031.24L375.237,937.496" style="fill:none;stroke:rgb(230,230,230);stroke-width:5px;"/>
                <path d="M234.639,1031.25L328.374,1031.25L375.237,1124.99L328.374,1218.75L281.511,1124.99L234.639,1031.25Z" style="fill:none;stroke:rgb(230,230,230);stroke-width:5px;"/>
                <path d="M187.776,937.491L281.511,937.491L328.374,1031.25L140.913,1031.25L187.776,937.491Z" style="fill:none;stroke:rgb(230,230,230);stroke-width:5px;"/>
                <path d="M94.04,937.491L187.776,937.491L140.913,1031.25L94.04,1124.99L47.178,1031.25L94.04,937.491Z" style="fill:none;stroke:rgb(230,230,230);stroke-width:5px;"/>
                <path d="M47.178,1031.25L94.04,1124.99L140.913,1218.75L47.178,1218.75L0.315,1124.99L47.178,1031.25Z" style="fill:none;stroke:rgb(230,230,230);stroke-width:5px;"/>
                <path d="M234.639,1031.25L140.913,1218.75" style="fill:none;stroke:rgb(230,230,230);stroke-width:5px;"/>
                <path d="M609.56,1031.25L703.295,1031.25L750.158,1124.99L703.295,1218.75L656.433,1124.99L609.56,1031.25Z" style="fill:none;stroke:rgb(230,230,230);stroke-width:5px;"/>
                <path d="M562.697,937.491L656.433,937.491L703.295,1031.25L515.834,1031.25L562.697,937.491Z" style="fill:none;stroke:rgb(230,230,230);stroke-width:5px;"/>
                <path d="M468.962,937.491L562.697,937.491L515.834,1031.25L468.962,1124.99L422.099,1031.25L468.962,937.491Z" style="fill:none;stroke:rgb(230,230,230);stroke-width:5px;"/>
                <path d="M422.099,1031.25L468.962,1124.99L515.834,1218.75L422.099,1218.75L375.237,1124.99L422.099,1031.25Z" style="fill:none;stroke:rgb(230,230,230);stroke-width:5px;"/>
                <path d="M609.56,1031.25L515.834,1218.75" style="fill:none;stroke:rgb(230,230,230);stroke-width:5px;"/>
                <path d="M984.481,1031.25L1078.22,1031.25L1125.08,1124.99L1078.22,1218.75L1031.35,1124.99L984.481,1031.25Z" style="fill:none;stroke:rgb(230,230,230);stroke-width:5px;"/>
                <path d="M937.619,937.491L1031.35,937.491L1078.22,1031.25L890.756,1031.25L937.619,937.491Z" style="fill:none;stroke:rgb(230,230,230);stroke-width:5px;"/>
                <path d="M843.883,937.491L937.619,937.491L890.756,1031.25L843.883,1124.99L797.021,1031.25L843.883,937.491Z" style="fill:none;stroke:rgb(230,230,230);stroke-width:5px;"/>
                <path d="M797.021,1031.25L843.883,1124.99L890.756,1218.75L797.021,1218.75L750.158,1124.99L797.021,1031.25Z" style="fill:none;stroke:rgb(230,230,230);stroke-width:5px;"/>
                <path d="M984.481,1031.25L890.756,1218.75" style="fill:none;stroke:rgb(230,230,230);stroke-width:5px;"/>
                <path d="M1359.4,1031.25L1453.14,1031.25L1500,1124.99L1453.14,1218.75L1406.27,1124.99L1359.4,1031.25Z" style="fill:none;stroke:rgb(230,230,230);stroke-width:5px;"/>
                <path d="M1312.54,937.491L1406.27,937.491L1453.14,1031.25L1265.68,1031.25L1312.54,937.491Z" style="fill:none;stroke:rgb(230,230,230);stroke-width:5px;"/>
                <path d="M1218.8,937.491L1312.54,937.491L1265.68,1031.25L1218.8,1124.99L1171.94,1031.25L1218.8,937.491Z" style="fill:none;stroke:rgb(230,230,230);stroke-width:5px;"/>
                <path d="M1171.94,1031.25L1218.8,1124.99L1265.68,1218.75L1171.94,1218.75L1125.08,1124.99L1171.94,1031.25Z" style="fill:none;stroke:rgb(230,230,230);stroke-width:5px;"/>
                <path d="M1359.4,1031.25L1265.68,1218.75" style="fill:none;stroke:rgb(230,230,230);stroke-width:5px;"/>
                <path d="M1734.32,1031.25L1828.06,1031.25L1874.92,1124.99L1828.06,1218.75L1781.2,1124.99L1734.32,1031.25Z" style="fill:none;stroke:rgb(230,230,230);stroke-width:5px;"/>
                <path d="M1687.46,937.491L1781.2,937.491L1828.06,1031.25L1640.6,1031.25L1687.46,937.491Z" style="fill:none;stroke:rgb(230,230,230);stroke-width:5px;"/>
                <path d="M1593.73,937.491L1687.46,937.491L1640.6,1031.25L1593.73,1124.99L1546.86,1031.25L1593.73,937.491Z" style="fill:none;stroke:rgb(230,230,230);stroke-width:5px;"/>
                <path d="M1546.86,1031.25L1593.73,1124.99L1640.6,1218.75L1546.86,1218.75L1500,1124.99L1546.86,1031.25Z" style="fill:none;stroke:rgb(230,230,230);stroke-width:5px;"/>
                <path d="M1734.32,1031.25L1640.6,1218.75" style="fill:none;stroke:rgb(230,230,230);stroke-width:5px;"/>
                <path d="M2109.24,1031.25L2202.98,1031.25L2249.84,1124.99L2202.98,1218.75L2156.12,1124.99L2109.24,1031.25Z" style="fill:none;stroke:rgb(230,230,230);stroke-width:5px;"/>
                <path d="M2062.38,937.491L2156.12,937.491L2202.98,1031.25L2015.52,1031.25L2062.38,937.491Z" style="fill:none;stroke:rgb(230,230,230);stroke-width:5px;"/>
                <path d="M1968.65,937.491L2062.38,937.491L2015.52,1031.25L1968.65,1124.99L1921.78,1031.25L1968.65,937.491Z" style="fill:none;stroke:rgb(230,230,230);stroke-width:5px;"/>
                <path d="M1921.78,1031.25L1968.65,1124.99L2015.52,1218.75L1921.78,1218.75L1874.92,1124.99L1921.78,1031.25Z" style="fill:none;stroke:rgb(230,230,230);stroke-width:5px;"/>
                <path d="M2109.24,1031.25L2015.52,1218.75" style="fill:none;stroke:rgb(230,230,230);stroke-width:5px;"/>
                <path d="M2484.17,1031.25L2577.9,1031.25L2624.76,1124.99L2577.9,1218.75L2531.04,1124.99L2484.17,1031.25Z" style="fill:none;stroke:rgb(230,230,230);stroke-width:5px;"/>
                <path d="M2437.3,937.491L2531.04,937.491L2577.9,1031.25L2390.44,1031.25L2437.3,937.491Z" style="fill:none;stroke:rgb(230,230,230);stroke-width:5px;"/>
                <path d="M2343.57,937.491L2437.3,937.491L2390.44,1031.25L2343.57,1124.99L2296.71,1031.25L2343.57,937.491Z" style="fill:none;stroke:rgb(230,230,230);stroke-width:5px;"/>
                <path d="M2296.71,1031.25L2343.57,1124.99L2390.44,1218.75L2296.71,1218.75L2249.84,1124.99L2296.71,1031.25Z" style="fill:none;stroke:rgb(230,230,230);stroke-width:5px;"/>
                <path d="M2484.17,1031.25L2390.44,1218.75" style="fill:none;stroke:rgb(230,230,230);stroke-width:5px;"/>
                <path d="M2859.09,1031.25L2952.82,1031.25L2999.68,1124.99L2952.82,1218.75L2905.96,1124.99L2859.09,1031.25Z" style="fill:none;stroke:rgb(230,230,230);stroke-width:5px;"/>
                <path d="M2812.22,937.491L2905.96,937.491L2952.82,1031.25L2765.36,1031.25L2812.22,937.491Z" style="fill:none;stroke:rgb(230,230,230);stroke-width:5px;"/>
                <path d="M2718.49,937.491L2812.22,937.491L2765.36,1031.25L2718.49,1124.99L2671.63,1031.25L2718.49,937.491Z" style="fill:none;stroke:rgb(230,230,230);stroke-width:5px;"/>
                <path d="M2671.63,1031.25L2718.49,1124.99L2765.36,1218.75L2671.63,1218.75L2624.76,1124.99L2671.63,1031.25Z" style="fill:none;stroke:rgb(230,230,230);stroke-width:5px;"/>
                <path d="M2859.09,1031.25L2765.36,1218.75" style="fill:none;stroke:rgb(230,230,230);stroke-width:5px;"/>
            </g>
        </g>
    </g>
</svg>
